<svg width="216" height="39" viewBox="0 0 216 39" fill="none" xmlns="http://www.w3.org/2000/svg">
<rect y="0.623779" width="3" height="39" transform="rotate(-12 0 0.623779)" fill="#F1FAEE"/>
<rect x="72" y="0.623779" width="3" height="39" transform="rotate(-12 72 0.623779)" fill="#F1FAEE"/>
<rect x="144" y="0.623779" width="3" height="39" transform="rotate(-12 144 0.623779)" fill="#F1FAEE"/>
<rect x="12" y="0.623779" width="3" height="39" transform="rotate(-12 12 0.623779)" fill="#F1FAEE"/>
<rect x="84" y="0.623779" width="3" height="39" transform="rotate(-12 84 0.623779)" fill="#F1FAEE"/>
<rect x="156" y="0.623779" width="3" height="39" transform="rotate(-12 156 0.623779)" fill="#F1FAEE"/>
<rect x="24" y="0.623779" width="3" height="39" transform="rotate(-12 24 0.623779)" fill="#F1FAEE"/>
<rect x="96" y="0.623779" width="3" height="39" transform="rotate(-12 96 0.623779)" fill="#F1FAEE"/>
<rect x="168" y="0.623779" width="3" height="39" transform="rotate(-12 168 0.623779)" fill="#F1FAEE"/>
<rect x="36" y="0.623779" width="3" height="39" transform="rotate(-12 36 0.623779)" fill="#F1FAEE"/>
<rect x="108" y="0.623779" width="3" height="39" transform="rotate(-12 108 0.623779)" fill="#F1FAEE"/>
<rect x="180" y="0.623779" width="3" height="39" transform="rotate(-12 180 0.623779)" fill="#F1FAEE"/>
<rect x="48" y="0.623779" width="3" height="39" transform="rotate(-12 48 0.623779)" fill="#F1FAEE"/>
<rect x="120" y="0.623779" width="3" height="39" transform="rotate(-12 120 0.623779)" fill="#F1FAEE"/>
<rect x="192" y="0.623779" width="3" height="39" transform="rotate(-12 192 0.623779)" fill="#F1FAEE"/>
<rect x="60" y="0.623779" width="3" height="39" transform="rotate(-12 60 0.623779)" fill="#F1FAEE"/>
<rect x="132" y="0.623779" width="3" height="39" transform="rotate(-12 132 0.623779)" fill="#F1FAEE"/>
<rect x="204" y="0.623779" width="3" height="39" transform="rotate(-12 204 0.623779)" fill="#F1FAEE"/>
</svg>
