<svg width="25" height="25" viewBox="0 0 25 25" fill="none" xmlns="http://www.w3.org/2000/svg">
<g clip-path="url(#clip0_1712_381)">
<path d="M12.4354 0C9.06078 0 8.63642 0.0155443 7.31049 0.0746127C5.98456 0.13679 5.08143 0.345084 4.29023 0.652861C3.46031 0.96502 2.70858 1.45468 2.0876 2.0876C1.45507 2.7089 0.965468 3.46054 0.652861 4.29023C0.345084 5.07988 0.135235 5.98456 0.0746127 7.30583C0.0155443 8.63486 0 9.05767 0 12.437C0 15.8132 0.0155443 16.236 0.0746127 17.562C0.13679 18.8863 0.345084 19.7895 0.652861 20.5807C0.971519 21.3983 1.39588 22.0916 2.0876 22.7833C2.77777 23.475 3.47104 23.9009 4.28868 24.218C5.08143 24.5258 5.98301 24.7357 7.30738 24.7963C8.63486 24.8554 9.05767 24.8709 12.4354 24.8709C15.8132 24.8709 16.2345 24.8554 17.562 24.7963C18.8848 24.7341 19.791 24.5258 20.5822 24.218C21.4116 23.9057 22.1628 23.4161 22.7833 22.7833C23.475 22.0916 23.8994 21.3983 24.218 20.5807C24.5243 19.7895 24.7341 18.8863 24.7963 17.562C24.8554 16.236 24.8709 15.8132 24.8709 12.4354C24.8709 9.05767 24.8554 8.63486 24.7963 7.30738C24.7341 5.98456 24.5243 5.07988 24.218 4.29023C23.9055 3.46051 23.4159 2.70887 22.7833 2.0876C22.1625 1.45444 21.4107 0.96475 20.5807 0.652861C19.7879 0.345084 18.8832 0.135235 17.5604 0.0746127C16.2329 0.0155443 15.8117 0 12.4323 0H12.437H12.4354ZM11.3209 2.24149H12.437C15.7573 2.24149 16.1505 2.25237 17.4609 2.31299C18.6734 2.3674 19.3325 2.57103 19.7708 2.74046C20.3506 2.96585 20.7656 3.23633 21.2009 3.67157C21.6361 4.10681 21.905 4.52029 22.1304 5.10164C22.3014 5.53844 22.5035 6.19752 22.5579 7.40997C22.6185 8.72036 22.631 9.11363 22.631 12.4323C22.631 15.751 22.6185 16.1459 22.5579 17.4563C22.5035 18.6687 22.2999 19.3262 22.1304 19.7646C21.9311 20.3045 21.6129 20.7927 21.1993 21.1931C20.7641 21.6284 20.3506 21.8973 19.7693 22.1227C19.334 22.2936 18.6749 22.4957 17.4609 22.5517C16.1505 22.6108 15.7573 22.6247 12.437 22.6247C9.11674 22.6247 8.72191 22.6108 7.41153 22.5517C6.19907 22.4957 5.54155 22.2936 5.1032 22.1227C4.56303 21.9236 4.07436 21.6059 3.67312 21.1931C3.25925 20.7921 2.94055 20.3034 2.74046 19.763C2.57103 19.3262 2.3674 18.6672 2.31299 17.4547C2.25392 16.1443 2.24149 15.751 2.24149 12.4292C2.24149 9.10896 2.25392 8.71725 2.31299 7.40686C2.36895 6.19441 2.57103 5.53533 2.74202 5.09698C2.96741 4.51718 3.23788 4.10214 3.67312 3.6669C4.10836 3.23166 4.52184 2.96275 5.1032 2.73735C5.54155 2.56637 6.19907 2.36429 7.41153 2.30833C8.5587 2.25548 9.00326 2.23994 11.3209 2.23838V2.24149ZM19.0744 4.30577C18.8785 4.30577 18.6844 4.34437 18.5034 4.41936C18.3223 4.49436 18.1578 4.60428 18.0192 4.74284C17.8807 4.88141 17.7708 5.04592 17.6958 5.22697C17.6208 5.40802 17.5822 5.60206 17.5822 5.79803C17.5822 5.99399 17.6208 6.18804 17.6958 6.36909C17.7708 6.55014 17.8807 6.71464 18.0192 6.85321C18.1578 6.99178 18.3223 7.1017 18.5034 7.17669C18.6844 7.25168 18.8785 7.29028 19.0744 7.29028C19.4702 7.29028 19.8498 7.13306 20.1296 6.85321C20.4095 6.57336 20.5667 6.1938 20.5667 5.79803C20.5667 5.40226 20.4095 5.0227 20.1296 4.74284C19.8498 4.46299 19.4702 4.30577 19.0744 4.30577ZM12.437 6.04985C11.5899 6.03663 10.7487 6.19205 9.96231 6.50707C9.1759 6.82208 8.46001 7.29039 7.85633 7.88473C7.25264 8.47907 6.77322 9.18757 6.44598 9.96897C6.11873 10.7504 5.95021 11.5891 5.95021 12.4362C5.95021 13.2834 6.11873 14.1221 6.44598 14.9035C6.77322 15.6849 7.25264 16.3934 7.85633 16.9877C8.46001 17.5821 9.1759 18.0504 9.96231 18.3654C10.7487 18.6804 11.5899 18.8358 12.437 18.8226C14.1135 18.7964 15.7125 18.1121 16.8889 16.9173C18.0652 15.7224 18.7245 14.1129 18.7245 12.4362C18.7245 10.7595 18.0652 9.15002 16.8889 7.95519C15.7125 6.76035 14.1135 6.076 12.437 6.04985ZM12.437 8.28978C13.5365 8.28978 14.591 8.72655 15.3684 9.50402C16.1459 10.2815 16.5827 11.3359 16.5827 12.4354C16.5827 13.5349 16.1459 14.5894 15.3684 15.3669C14.591 16.1443 13.5365 16.5811 12.437 16.5811C11.3375 16.5811 10.283 16.1443 9.50557 15.3669C8.72811 14.5894 8.29134 13.5349 8.29134 12.4354C8.29134 11.3359 8.72811 10.2815 9.50557 9.50402C10.283 8.72655 11.3375 8.28978 12.437 8.28978Z" fill="#393939"/>
</g>
<defs>
<clipPath id="clip0_1712_381">
<rect width="24.8709" height="24.8709" fill="white"/>
</clipPath>
</defs>
</svg>
