<svg width="26" height="25" viewBox="0 0 26 25" fill="none" xmlns="http://www.w3.org/2000/svg">
<path d="M25.8711 12.5C25.8711 15.8152 24.5541 18.9946 22.2099 21.3388C19.8657 23.683 16.6863 25 13.3711 25C10.0559 25 6.87646 23.683 4.53226 21.3388C2.18805 18.9946 0.871094 15.8152 0.871094 12.5C0.871094 9.18479 2.18805 6.00537 4.53226 3.66117C6.87646 1.31696 10.0559 0 13.3711 0C16.6863 0 19.8657 1.31696 22.2099 3.66117C24.5541 6.00537 25.8711 9.18479 25.8711 12.5V12.5ZM13.8195 9.22813C12.6039 9.73438 10.1727 10.7812 6.52891 12.3687C5.93828 12.6031 5.62734 12.8344 5.59922 13.0594C5.55234 13.4391 6.02891 13.5891 6.67734 13.7938L6.95078 13.8797C7.58828 14.0875 8.44766 14.3297 8.89297 14.3391C9.29922 14.3484 9.75078 14.1828 10.2492 13.8391C13.6539 11.5406 15.4117 10.3797 15.5211 10.3547C15.5992 10.3359 15.7086 10.3141 15.7805 10.3797C15.8539 10.4438 15.8461 10.5672 15.8383 10.6C15.7914 10.8016 13.9211 12.5391 12.9539 13.4391C12.6523 13.7203 12.4383 13.9188 12.3945 13.9641C12.2982 14.0625 12.2003 14.1594 12.1008 14.2547C11.507 14.8266 11.0633 15.2547 12.1242 15.9547C12.6352 16.2922 13.0445 16.5687 13.4523 16.8469C13.8961 17.15 14.3398 17.4516 14.9148 17.8297C15.0602 17.9234 15.2008 18.025 15.3367 18.1219C15.8539 18.4906 16.3211 18.8219 16.8945 18.7688C17.2289 18.7375 17.5742 18.425 17.7492 17.4875C18.1633 15.2734 18.9773 10.4781 19.1648 8.50156C19.1763 8.33725 19.1695 8.17218 19.1445 8.00937C19.1298 7.878 19.0662 7.75697 18.9664 7.67031C18.8242 7.57217 18.6547 7.52133 18.482 7.525C18.0133 7.53281 17.2898 7.78438 13.8195 9.22813V9.22813Z" fill="#ADFF00"/>
</svg>
