<svg width="26" height="25" viewBox="0 0 26 25" fill="none" xmlns="http://www.w3.org/2000/svg">
<path d="M25.742 12.4354C25.742 15.7335 24.4318 18.8965 22.0997 21.2286C19.7676 23.5607 16.6046 24.8709 13.3065 24.8709C10.0085 24.8709 6.84545 23.5607 4.51335 21.2286C2.18125 18.8965 0.871094 15.7335 0.871094 12.4354C0.871094 9.13736 2.18125 5.97436 4.51335 3.64226C6.84545 1.31016 10.0085 0 13.3065 0C16.6046 0 19.7676 1.31016 22.0997 3.64226C24.4318 5.97436 25.742 9.13736 25.742 12.4354ZM13.7527 9.18047C12.5433 9.6841 10.1246 10.7256 6.49969 12.3049C5.91211 12.538 5.60278 12.7681 5.5748 12.9919C5.52817 13.3697 6.00227 13.5189 6.64736 13.7225L6.91938 13.808C7.55359 14.0148 8.40853 14.2557 8.85154 14.265C9.25569 14.2743 9.70492 14.1096 10.2008 13.7676C13.5879 11.481 15.3366 10.3261 15.4454 10.3012C15.5232 10.2826 15.632 10.2608 15.7035 10.3261C15.7765 10.3898 15.7688 10.5126 15.761 10.5453C15.7144 10.7458 13.8537 12.4743 12.8915 13.3697C12.5915 13.6495 12.3785 13.8469 12.335 13.8919C12.2392 13.9899 12.1418 14.0863 12.0428 14.1811C11.4521 14.75 11.0106 15.1759 12.0661 15.8723C12.5744 16.2081 12.9817 16.4832 13.3874 16.7599C13.8288 17.0614 14.2703 17.3614 14.8423 17.7376C14.9869 17.8309 15.1268 17.9319 15.262 18.0283C15.7765 18.3951 16.2413 18.7247 16.8118 18.6718C17.1444 18.6407 17.488 18.3299 17.6621 17.3972C18.074 15.1946 18.8838 10.424 19.0704 8.45766C19.0818 8.2942 19.075 8.12998 19.0502 7.96801C19.0355 7.83732 18.9723 7.71691 18.873 7.6307C18.7315 7.53307 18.5629 7.48248 18.3911 7.48614C17.9248 7.49391 17.2051 7.74418 13.7527 9.18047Z" fill="#393939"/>
</svg>
